<svg xmlns="http://www.w3.org/2000/svg" version="1.1" xmlns:xlink="http://www.w3.org/1999/xlink" xmlns:svgjs="http://svgjs.dev/svgjs" width="1440" height="560" preserveAspectRatio="none" viewBox="0 0 1440 560"><g mask="url(&quot;#SvgjsMask1018&quot;)" fill="none"><rect width="1440" height="560" x="0" y="0" fill="url(&quot;#SvgjsLinearGradient1019&quot;)"></rect><path d="M1440 0L1347.18 0L1440 137.24z" fill="rgba(255, 255, 255, .1)"></path><path d="M1347.18 0L1440 137.24L1440 194.35000000000002L739.5200000000001 0z" fill="rgba(255, 255, 255, .075)"></path><path d="M739.52 0L1440 194.35000000000002L1440 235.06000000000003L345.12 0z" fill="rgba(255, 255, 255, .05)"></path><path d="M345.1199999999999 0L1440 235.06000000000003L1440 465.80000000000007L295.26999999999987 0z" fill="rgba(255, 255, 255, .025)"></path><path d="M0 560L514.9 560L0 382.5z" fill="rgba(0, 0, 0, .1)"></path><path d="M0 382.5L514.9 560L675.22 560L0 270.18z" fill="rgba(0, 0, 0, .075)"></path><path d="M0 270.18L675.22 560L772.13 560L0 163.93z" fill="rgba(0, 0, 0, .05)"></path><path d="M0 163.93L772.13 560L801.42 560L0 157.93z" fill="rgba(0, 0, 0, .025)"></path></g><defs><mask id="SvgjsMask1018"><rect width="1440" height="560" fill="#ffffff"></rect></mask><linearGradient x1="15.28%" y1="-39.29%" x2="84.72%" y2="139.29%" gradientUnits="userSpaceOnUse" id="SvgjsLinearGradient1019"><stop stop-color="#0e2a47" offset="0"></stop><stop stop-color="rgba(217, 126, 34, 1)" offset="1"></stop></linearGradient></defs></svg>